
<svg id="f3e850a6-8a16-4c62-842a-3c17b81ca7aa" data-name="Layer 1" xmlns="http://www.w3.org/2000/svg" xmlns:xlink="http://www.w3.org/1999/xlink" width="353" height="718" viewBox="0 0 353 718"><defs><style>.efd2c336-3ea7-42c5-8eb7-c47333549ce3{fill:url(#b0d3adb1-08d7-411e-816c-4db06e49fe8b);}.e81d1ac7-75fd-4271-9f42-109a592b66b6{fill:none;}.ad206db0-5a4c-4958-9831-736dc730c7dc{fill:url(#af086281-3817-42bd-98b9-e277fd65036b);}.b230dedb-8de5-4be9-a1d8-fbe532133809{fill:#333;}</style><linearGradient id="b0d3adb1-08d7-411e-816c-4db06e49fe8b" x1="-14" y1="666.5" x2="491" y2="161.5" gradientTransform="matrix(1, 0, 0, -1, 0, 828)" gradientUnits="userSpaceOnUse"><stop offset="0" stop-color="#ccc"/><stop offset="1" stop-color="gray"/></linearGradient><linearGradient id="af086281-3817-42bd-98b9-e277fd65036b" x1="-9.17" y1="661.68" x2="485.18" y2="167.32" gradientTransform="matrix(1, 0, 0, -1, 0, 828)" gradientUnits="userSpaceOnUse"><stop offset="0" stop-color="#666"/><stop offset="1"/></linearGradient></defs><title>iphone-x-minimal-no-buttons</title><path class="efd2c336-3ea7-42c5-8eb7-c47333549ce3" d="M415,107.1A52.07,52.07,0,0,0,362.9,55H114.1A52.07,52.07,0,0,0,62,107.1V720.9A52.07,52.07,0,0,0,114.1,773H362.9A52.07,52.07,0,0,0,415,720.9Zm-8,613.3A44.64,44.64,0,0,1,362.4,765H113.6A44.64,44.64,0,0,1,69,720.4V106.6A44.64,44.64,0,0,1,113.6,62H362.4A44.64,44.64,0,0,1,407,106.6Z" transform="translate(-62 -55)"/><path class="e81d1ac7-75fd-4271-9f42-109a592b66b6" d="M365.6,74H337.1c-6.1,0-8.3-.2-8.7,7.5-.4,8-5.9,12.5-13.3,14.8-2.5.8-5.3.7-8,.7H175.5c-2.7,0-5.5.2-8-.6-7.4-2.3-13-7-13.3-15-.4-7.7-2.6-7.4-8.7-7.4H116.7C99.2,74,84,88,84,105.4V718.7c0,17.5,15.2,31.3,32.6,31.3h249c17.5,0,30.4-13.8,30.4-31.3V105.4C396,88,383.1,74,365.6,74Z" transform="translate(-62 -55)"/><path class="ad206db0-5a4c-4958-9831-736dc730c7dc" d="M407,106.6A44.64,44.64,0,0,0,362.4,62H113.6A44.64,44.64,0,0,0,69,106.6V720.4A44.64,44.64,0,0,0,113.6,765H362.4A44.64,44.64,0,0,0,407,720.4ZM281.4,79.1a4.4,4.4,0,1,1-4.4-4.4A4.31,4.31,0,0,1,281.4,79.1ZM221.9,77h39c1.7,0,3,1,3,2.5s-1.3,2.5-3,2.5h-39c-1.7,0-3-1-3-2.5A2.74,2.74,0,0,1,221.9,77ZM396,718.7c0,17.5-12.9,31.3-30.4,31.3h-249C99.2,750,84,736.2,84,718.7V105.4C84,88,99.2,74,116.6,74h28.8c6.1,0,8.3-.2,8.7,7.5.4,8,5.9,12.5,13.3,14.8,2.5.8,5.3.7,8,.7H306.9c2.7,0,5.5.2,8-.6,7.4-2.3,13-7,13.3-15,.4-7.7,2.6-7.4,8.7-7.4h28.5c17.5,0,30.4,14,30.4,31.4V718.7Z" transform="translate(-62 -55)"/><circle class="b230dedb-8de5-4be9-a1d8-fbe532133809" cx="215.1" cy="24.1" r="4.4"/><path class="b230dedb-8de5-4be9-a1d8-fbe532133809" d="M221.9,82h39c1.7,0,3-1,3-2.5s-1.3-2.5-3-2.5h-39c-1.7,0-3,1-3,2.5A2.74,2.74,0,0,0,221.9,82Z" transform="translate(-62 -55)"/></svg>