<svg width="1024" height="1024" viewBox="0 0 1024 1024" fill="none" xmlns="http://www.w3.org/2000/svg">
<rect width="1024" height="1024" fill="white"/>
<circle cx="511.806" cy="512.011" r="159.375" fill="#E88331"/>
<path d="M640.314 181.079C629.442 176.66 624.21 164.264 628.629 153.392C633.048 142.52 645.444 137.288 656.317 141.707L640.314 181.079ZM656.768 880.691C646 885.359 633.487 880.414 628.819 869.646C624.151 858.879 629.095 846.365 639.863 841.697L656.768 880.691ZM648.315 161.393C656.317 141.707 656.326 141.711 656.336 141.715C656.341 141.717 656.352 141.721 656.361 141.725C656.38 141.733 656.402 141.742 656.428 141.752C656.48 141.774 656.547 141.801 656.629 141.835C656.792 141.903 657.014 141.996 657.293 142.114C657.851 142.349 658.636 142.686 659.634 143.125C661.628 144.002 664.474 145.289 668.049 146.998C675.197 150.415 685.279 155.528 697.32 162.433C721.36 176.221 753.436 197.289 785.582 226.469C849.901 284.853 915.534 376.795 915.534 507.961H873.034C873.034 392.531 815.682 311.189 757.017 257.938C727.671 231.3 698.255 211.963 676.176 199.3C665.157 192.98 656.023 188.356 649.719 185.342C646.569 183.836 644.13 182.735 642.522 182.027C641.718 181.674 641.122 181.419 640.749 181.261C640.562 181.182 640.432 181.128 640.359 181.098C640.322 181.082 640.3 181.073 640.292 181.07C640.289 181.069 640.289 181.069 640.292 181.07C640.294 181.071 640.299 181.073 640.3 181.074C640.307 181.076 640.314 181.079 648.315 161.393ZM915.534 507.961C915.534 639.051 849.976 732.593 785.811 792.575C753.721 822.573 721.696 844.477 697.689 858.896C685.666 866.117 675.6 871.494 668.466 875.098C664.897 876.9 662.058 878.262 660.069 879.19C659.074 879.655 658.292 880.011 657.736 880.261C657.459 880.386 657.238 880.484 657.076 880.555C656.995 880.591 656.929 880.62 656.877 880.643C656.852 880.654 656.83 880.664 656.811 880.672C656.802 880.676 656.791 880.68 656.787 880.682C656.777 880.687 656.768 880.691 648.315 861.194C639.863 841.697 639.856 841.7 639.85 841.703C639.849 841.703 639.844 841.706 639.842 841.706C639.839 841.708 639.839 841.708 639.843 841.706C639.851 841.702 639.874 841.692 639.911 841.676C639.986 841.643 640.118 841.585 640.305 841.5C640.681 841.331 641.28 841.059 642.087 840.682C643.701 839.928 646.146 838.758 649.303 837.163C655.62 833.972 664.77 829.091 675.807 822.462C697.919 809.181 727.387 789.013 756.788 761.528C815.608 706.542 873.034 623.468 873.034 507.961H915.534Z" fill="#8CAADA"/>
<path d="M679.066 106.674C668.2 102.239 662.987 89.8355 667.422 78.9697C671.857 68.1039 684.261 62.8907 695.126 67.3258L679.066 106.674ZM695.579 956.483C684.818 961.168 672.297 956.243 667.613 945.482C662.928 934.722 667.853 922.201 678.614 917.516L695.579 956.483ZM687.096 87C695.126 67.3258 695.136 67.3296 695.146 67.3339C695.151 67.336 695.163 67.3408 695.173 67.3449C695.193 67.3532 695.218 67.3633 695.247 67.3754C695.306 67.3994 695.382 67.431 695.476 67.4702C695.664 67.5485 695.924 67.6572 696.251 67.7962C696.907 68.0744 697.837 68.4747 699.023 68.9988C701.396 70.0468 704.796 71.591 709.076 73.6459C717.633 77.754 729.73 83.9126 744.186 92.2392C773.059 108.869 811.576 134.277 850.162 169.45C927.365 239.826 1005.85 350.357 1005.85 507.952L963.346 507.952C963.346 366.023 893.077 266.078 821.531 200.859C785.741 168.235 749.884 144.566 722.975 129.067C709.541 121.33 698.395 115.662 690.683 111.959C686.828 110.109 683.836 108.752 681.851 107.875C680.858 107.436 680.118 107.118 679.648 106.919C679.413 106.819 679.245 106.749 679.147 106.708C679.098 106.688 679.067 106.675 679.053 106.669C679.046 106.666 679.044 106.665 679.046 106.666C679.047 106.667 679.052 106.669 679.053 106.669C679.059 106.671 679.066 106.674 687.096 87ZM1005.85 507.952C1005.85 665.471 927.439 777.959 850.39 850.29C811.86 886.461 773.394 912.883 744.556 930.278C730.117 938.987 718.037 945.466 709.493 949.8C705.22 951.968 701.826 953.602 699.459 954.711C698.276 955.266 697.349 955.691 696.696 955.985C696.369 956.133 696.112 956.248 695.925 956.331C695.831 956.372 695.755 956.406 695.698 956.431C695.669 956.444 695.644 956.454 695.625 956.463C695.615 956.467 695.603 956.472 695.598 956.475C695.588 956.479 695.579 956.483 687.096 937C678.614 917.516 678.607 917.519 678.601 917.522C678.6 917.522 678.596 917.524 678.595 917.524C678.593 917.525 678.596 917.524 678.603 917.521C678.617 917.514 678.649 917.5 678.699 917.478C678.798 917.434 678.967 917.359 679.203 917.252C679.676 917.039 680.42 916.699 681.415 916.232C683.406 915.298 686.404 913.857 690.266 911.898C697.991 907.979 709.153 901.999 722.605 893.885C749.548 877.634 785.457 852.955 821.302 819.304C893.003 751.993 963.346 649.957 963.346 507.952L1005.85 507.952Z" fill="#8CAADA"/>
<path d="M604.547 252.705C593.713 248.192 588.591 235.75 593.104 224.917C597.618 214.084 610.06 208.961 620.893 213.475L604.547 252.705ZM621.35 810.321C610.626 815.087 598.068 810.257 593.301 799.533C588.535 788.808 593.365 776.25 604.089 771.484L621.35 810.321ZM612.72 233.09C620.893 213.475 620.902 213.479 620.912 213.483C620.916 213.484 620.927 213.489 620.935 213.492C620.952 213.5 620.972 213.508 620.995 213.518C621.041 213.537 621.098 213.561 621.167 213.59C621.305 213.649 621.488 213.727 621.716 213.826C622.172 214.023 622.804 214.301 623.603 214.661C625.199 215.381 627.46 216.43 630.289 217.816C635.945 220.588 643.894 224.721 653.373 230.294C672.292 241.418 697.525 258.409 722.821 281.948C773.466 329.076 825.22 403.394 825.22 509.34H782.72C782.72 418.724 738.848 354.917 693.869 313.061C671.352 292.107 648.773 276.891 631.832 266.931C623.381 261.962 616.389 258.334 611.586 255.98C609.186 254.804 607.338 253.948 606.132 253.405C605.53 253.133 605.089 252.94 604.821 252.823C604.687 252.765 604.596 252.726 604.55 252.707C604.527 252.697 604.515 252.692 604.514 252.692C604.514 252.692 604.516 252.693 604.522 252.695C604.525 252.696 604.531 252.699 604.532 252.699C604.539 252.702 604.547 252.705 612.72 233.09ZM825.22 509.34C825.22 615.213 773.536 690.79 723.048 739.174C697.809 763.362 672.628 781.017 653.744 792.645C644.284 798.47 636.351 802.814 630.709 805.736C627.887 807.198 625.633 808.305 624.043 809.067C623.248 809.447 622.618 809.742 622.165 809.95C621.939 810.055 621.757 810.138 621.621 810.199C621.552 810.23 621.496 810.256 621.451 810.276C621.428 810.286 621.408 810.295 621.392 810.302C621.383 810.306 621.373 810.311 621.369 810.313C621.359 810.317 621.35 810.321 612.72 790.902C604.089 771.484 604.082 771.487 604.075 771.49C604.074 771.491 604.068 771.493 604.065 771.494C604.06 771.497 604.058 771.498 604.059 771.497C604.06 771.497 604.073 771.491 604.096 771.481C604.144 771.459 604.236 771.417 604.372 771.355C604.643 771.23 605.087 771.023 605.692 770.733C606.904 770.153 608.759 769.243 611.166 767.996C615.983 765.502 622.992 761.67 631.461 756.455C648.437 746.002 671.068 730.123 693.642 708.49C738.778 665.234 782.72 600.029 782.72 509.34H825.22Z" fill="#8CAADA"/>
<path d="M383.282 181.079C394.154 176.66 399.386 164.264 394.967 153.392C390.548 142.52 378.152 137.288 367.279 141.707L383.282 181.079ZM366.828 880.691C377.596 885.359 390.109 880.414 394.777 869.646C399.445 858.879 394.501 846.365 383.733 841.697L366.828 880.691ZM375.281 161.393C367.279 141.707 367.27 141.711 367.26 141.715C367.255 141.717 367.244 141.721 367.235 141.725C367.216 141.733 367.194 141.742 367.168 141.752C367.116 141.774 367.049 141.801 366.967 141.835C366.804 141.903 366.582 141.996 366.303 142.114C365.745 142.349 364.96 142.686 363.962 143.125C361.968 144.002 359.122 145.289 355.546 146.998C348.399 150.415 338.317 155.528 326.276 162.433C302.236 176.221 270.16 197.289 238.014 226.469C173.695 284.853 108.062 376.795 108.062 507.961H150.562C150.562 392.531 207.914 311.189 266.579 257.938C295.925 231.3 325.341 211.963 347.42 199.3C358.439 192.98 367.573 188.356 373.877 185.342C377.027 183.836 379.466 182.735 381.074 182.027C381.878 181.674 382.474 181.419 382.847 181.261C383.034 181.182 383.164 181.128 383.237 181.098C383.274 181.082 383.296 181.073 383.304 181.07C383.307 181.069 383.307 181.069 383.304 181.07C383.302 181.071 383.296 181.073 383.296 181.074C383.289 181.076 383.282 181.079 375.281 161.393ZM108.062 507.961C108.062 639.051 173.62 732.593 237.785 792.575C269.875 822.573 301.9 844.477 325.907 858.896C337.929 866.117 347.996 871.494 355.13 875.098C358.699 876.9 361.538 878.262 363.527 879.19C364.522 879.655 365.304 880.011 365.859 880.261C366.137 880.386 366.358 880.484 366.52 880.555C366.601 880.591 366.667 880.62 366.719 880.643C366.744 880.654 366.766 880.664 366.785 880.672C366.794 880.676 366.805 880.68 366.809 880.682C366.819 880.687 366.828 880.691 375.281 861.194C383.733 841.697 383.74 841.7 383.746 841.703C383.747 841.703 383.752 841.706 383.754 841.706C383.757 841.708 383.757 841.708 383.753 841.706C383.745 841.702 383.722 841.692 383.685 841.676C383.61 841.643 383.478 841.585 383.29 841.5C382.915 841.331 382.316 841.059 381.509 840.682C379.895 839.928 377.45 838.758 374.293 837.163C367.976 833.972 358.826 829.091 347.789 822.462C325.676 809.181 296.209 789.013 266.808 761.528C207.988 706.542 150.562 623.468 150.562 507.961H108.062Z" fill="#8CAADA"/>
<path d="M344.53 106.674C355.396 102.239 360.609 89.8355 356.174 78.9697C351.739 68.1039 339.335 62.8907 328.47 67.3258L344.53 106.674ZM328.017 956.483C338.778 961.168 351.298 956.243 355.983 945.482C360.668 934.722 355.743 922.201 344.982 917.516L328.017 956.483ZM336.5 87C328.47 67.3258 328.46 67.3296 328.449 67.3339C328.444 67.336 328.433 67.3408 328.423 67.3449C328.402 67.3532 328.378 67.3633 328.349 67.3754C328.29 67.3994 328.214 67.431 328.12 67.4702C327.931 67.5485 327.672 67.6572 327.345 67.7962C326.689 68.0744 325.759 68.4747 324.573 68.9988C322.2 70.0468 318.8 71.591 314.52 73.6459C305.963 77.754 293.866 83.9126 279.41 92.2392C250.537 108.869 212.02 134.277 173.434 169.45C96.2308 239.826 17.75 350.357 17.75 507.952L60.25 507.952C60.25 366.023 130.519 266.078 202.065 200.859C237.855 168.235 273.712 144.566 300.621 129.067C314.055 121.33 325.201 115.662 332.913 111.959C336.768 110.109 339.76 108.752 341.745 107.875C342.737 107.436 343.478 107.118 343.948 106.919C344.183 106.819 344.351 106.749 344.449 106.708C344.498 106.688 344.529 106.675 344.543 106.669C344.549 106.666 344.552 106.665 344.55 106.666C344.549 106.667 344.544 106.669 344.543 106.669C344.537 106.671 344.53 106.674 336.5 87ZM17.75 507.952C17.75 665.471 96.1573 777.959 173.206 850.29C211.736 886.461 250.202 912.883 279.04 930.278C293.479 938.987 305.559 945.466 314.103 949.8C318.376 951.968 321.77 953.602 324.137 954.711C325.32 955.266 326.247 955.691 326.9 955.985C327.227 956.133 327.484 956.248 327.671 956.331C327.765 956.372 327.84 956.406 327.898 956.431C327.927 956.444 327.951 956.454 327.971 956.463C327.981 956.467 327.993 956.472 327.998 956.475C328.008 956.479 328.017 956.483 336.5 937C344.982 917.516 344.989 917.519 344.995 917.522C344.996 917.522 345 917.524 345.001 917.524C345.003 917.525 345 917.524 344.993 917.521C344.979 917.514 344.947 917.5 344.897 917.478C344.798 917.434 344.629 917.359 344.393 917.252C343.92 917.039 343.176 916.699 342.181 916.232C340.19 915.298 337.192 913.857 333.33 911.898C325.604 907.979 314.443 901.999 300.991 893.885C274.048 877.634 238.139 852.955 202.294 819.304C130.593 751.993 60.25 649.957 60.25 507.952L17.75 507.952Z" fill="#8CAADA"/>
<path d="M419.049 252.705C429.882 248.192 435.005 235.75 430.491 224.917C425.978 214.084 413.536 208.961 402.703 213.475L419.049 252.705ZM402.246 810.321C412.97 815.087 425.528 810.257 430.295 799.533C435.061 788.808 430.231 776.25 419.507 771.484L402.246 810.321ZM410.876 233.09C402.703 213.475 402.694 213.479 402.684 213.483C402.68 213.484 402.669 213.489 402.661 213.492C402.644 213.5 402.624 213.508 402.601 213.518C402.555 213.537 402.498 213.561 402.429 213.59C402.291 213.649 402.108 213.727 401.88 213.826C401.424 214.023 400.792 214.301 399.993 214.661C398.397 215.381 396.136 216.43 393.307 217.816C387.651 220.588 379.702 224.721 370.223 230.294C351.304 241.418 326.071 258.409 300.775 281.948C250.13 329.076 198.376 403.394 198.376 509.34H240.876C240.876 418.724 284.748 354.917 329.727 313.061C352.244 292.107 374.823 276.891 391.764 266.931C400.214 261.962 407.207 258.334 412.01 255.98C414.41 254.804 416.258 253.948 417.463 253.405C418.066 253.133 418.507 252.94 418.775 252.823C418.909 252.765 419 252.726 419.046 252.707C419.069 252.697 419.081 252.692 419.082 252.692C419.082 252.692 419.08 252.693 419.074 252.695C419.071 252.696 419.065 252.699 419.064 252.699C419.057 252.702 419.049 252.705 410.876 233.09ZM198.376 509.34C198.376 615.213 250.06 690.79 300.548 739.174C325.787 763.362 350.968 781.017 369.852 792.645C379.312 798.47 387.245 802.814 392.886 805.736C395.709 807.198 397.963 808.305 399.553 809.067C400.348 809.447 400.978 809.742 401.431 809.95C401.657 810.055 401.839 810.138 401.975 810.199C402.044 810.23 402.1 810.256 402.145 810.276C402.168 810.286 402.188 810.295 402.204 810.302C402.213 810.306 402.223 810.311 402.227 810.313C402.237 810.317 402.246 810.321 410.876 790.902C419.507 771.484 419.514 771.487 419.521 771.49C419.522 771.491 419.528 771.493 419.53 771.494C419.536 771.497 419.538 771.498 419.537 771.497C419.536 771.497 419.523 771.491 419.5 771.481C419.452 771.459 419.36 771.417 419.224 771.355C418.953 771.23 418.509 771.023 417.904 770.733C416.692 770.153 414.837 769.243 412.43 767.996C407.613 765.502 400.604 761.67 392.135 756.455C375.159 746.002 352.528 730.123 329.954 708.49C284.818 665.234 240.876 600.029 240.876 509.34H198.376Z" fill="#8CAADA"/>
</svg>
